<?xml version="1.0" encoding="UTF-8"?>
<!DOCTYPE svg PUBLIC "-//W3C//DTD SVG 1.1//EN" "http://www.w3.org/Graphics/SVG/1.1/DTD/svg11.dtd">
<!-- Creator: CorelDRAW -->
<svg xmlns="http://www.w3.org/2000/svg" xml:space="preserve" width="2920px" height="2174px" version="1.1" style="shape-rendering:geometricPrecision; text-rendering:geometricPrecision; image-rendering:optimizeQuality; fill-rule:evenodd; clip-rule:evenodd"
viewBox="0 0 2919.87 2173.91"
 xmlns:xlink="http://www.w3.org/1999/xlink"
 xmlns:xodm="http://www.corel.com/coreldraw/odm/2003">
 <defs>
  <style type="text/css">
   <![CDATA[
    .fil10 {fill:#05165A}
    .fil0 {fill:black;fill-rule:nonzero}
    .fil9 {fill:#03185B;fill-rule:nonzero}
    .fil2 {fill:#0EDDD7;fill-rule:nonzero}
    .fil3 {fill:#18D641;fill-rule:nonzero}
    .fil6 {fill:#71CD00;fill-rule:nonzero}
    .fil7 {fill:#EA34DD;fill-rule:nonzero}
    .fil4 {fill:#FF0087;fill-rule:nonzero}
    .fil8 {fill:#FF5555;fill-rule:nonzero}
    .fil5 {fill:#FF6600;fill-rule:nonzero}
    .fil1 {fill:#FFCD00;fill-rule:nonzero}
   ]]>
  </style>
 </defs>
 <g id="Layer_x0020_1">
  <metadata id="CorelCorpID_0Corel-Layer"/>
  <g id="_3067617270224">
   <path class="fil0" d="M1374.73 931.73l0 0c0,0 0.01,0 0.01,0l-0.01 0z"/>
   <path class="fil0" d="M1622.91 963.67c0.02,0.01 0.02,0.01 0.04,0.02 0,0 0.01,0.01 0.01,0.01l-0.05 -0.03z"/>
   <path class="fil0" d="M1313.7 929.95c0.02,0 0.03,0 0.04,0 0.02,-0.01 0.03,-0.01 0.05,-0.01l-0.09 0.01z"/>
   <path class="fil1" d="M2691.5 971.19c-27,-27.08 -63.67,-42.3 -101.91,-42.3l-45.04 0c-39.93,0 -76.1,16.38 -102.14,42.67 -14.34,-9.75 -28.49,-17.18 -43.48,-22.69 -15.98,-5.88 -32.69,-9.56 -50.5,-11.2 -15.46,-5.67 -32.16,-8.78 -49.53,-8.78l-45.03 0c-21.65,0 -42.21,4.86 -60.64,13.45l-1.96 0c-3.06,0 -6.1,0.13 -9.11,0.32 -18.63,-8.8 -39.46,-13.77 -61.37,-13.77l-32.85 0 0 26.17 32.85 0c19.09,0 37.05,4.52 52.97,12.55 2.16,1.09 4.63,1.57 7.04,1.36 3.45,-0.31 6.95,-0.46 10.47,-0.46l4.81 0c1.99,0 4,-0.47 5.78,-1.35 15.7,-7.74 33.3,-12.1 52.01,-12.1l45.03 0c14.83,0 28.95,2.72 41.99,7.7 1.14,0.43 2.35,0.71 3.57,0.81 16.37,1.38 31.19,4.62 45.43,9.86 15.78,5.82 30.35,13.89 46.52,25.94 5.57,4.16 13.4,3.24 17.86,-2.08 21.65,-25.83 53.99,-42.23 90.28,-42.23l45.04 0c31.29,0 61.29,12.45 83.38,34.6 22.02,22.08 34.37,51.97 34.37,83.14l0 0.36 0 -0.02 -0.53 187.97c-0.02,7.23 5.82,13.1 13.05,13.12 7.22,0.02 13.1,-5.82 13.12,-13.05l0 0 0.53 -187.96 0 -0.02 0 -0.4c0,-38.09 -15.1,-74.64 -42.01,-101.61z"/>
   <path class="fil0" d="M1822.46 928.33c0.01,0 0.02,0 0.02,0 0.01,0 0.02,0 0.03,0l-0.05 0z"/>
   <path class="fil2" d="M2877.86 1290.36c-27,-27.08 -63.67,-42.3 -101.91,-42.3 -7.23,0 -13.08,5.86 -13.08,13.09 0,7.22 5.85,13.08 13.08,13.08 31.29,0 61.29,12.45 83.38,34.61 22.02,22.08 34.38,51.98 34.38,83.15l0 0.35 0 -0.01 -1.06 371.31c-0.1,32.49 -13.29,61.76 -34.61,83.04 -21.35,21.27 -50.66,34.37 -83.15,34.38l-81.81 0c-18.12,0 -35.8,-4.18 -51.77,-11.99 -3.05,-1.5 -6.49,-1.75 -9.72,-0.72 -22.18,7.06 -45.05,11.25 -68.64,12.53 -2.13,0.12 -4.26,0.18 -6.38,0.18l-6.38 0c-37.53,-0.01 -71.97,-8.25 -102.59,-23.98 -2.43,-1.26 -5.21,-1.71 -7.91,-1.31 -5.72,0.85 -11.56,1.3 -17.5,1.3l-81.8 0c-18.94,0 -36.75,-4.44 -52.57,-12.35 -4.99,-2.49 -11.01,-1.55 -14.99,2.34 -21.27,20.73 -50.21,33.47 -82.25,33.48l-81.81 0c-3.05,0 -6.15,-0.16 -9.35,-0.41 -0.77,-0.06 -1.8,-0.04 -2.56,0.05 -4.69,0.56 -9.38,0.88 -14.09,0.88 -7.23,0 -13.09,5.85 -13.09,13.08 0,7.23 5.86,13.08 13.09,13.08l0 0c5.38,0 10.65,-0.36 15.8,-0.92 3.29,0.23 6.68,0.41 10.2,0.41l81.81 0c35.8,0 68.62,-13.14 93.8,-34.8 17.22,7.28 36.17,11.33 56.01,11.33l81.8 0c5.78,0 11.46,-0.44 17.06,-1.11 33.53,16.54 71,25.1 110.94,25.09l6.38 0c2.6,0 5.21,-0.07 7.8,-0.21 24.04,-1.3 47.49,-5.42 70.25,-12.25 18.24,8.11 38.12,12.46 58.46,12.46l81.81 0c39.62,0.01 75.63,-16.06 101.63,-42.01 26.01,-25.92 42.19,-61.88 42.29,-101.5l1.06 -371.31 0 -0.01 0 -0.4c0,-38.1 -15.1,-74.64 -42.01,-101.63z"/>
   <path class="fil3" d="M2001.49 1881.06c-34.76,-0.01 -65.89,-15.01 -87.49,-38.95 -2.47,-2.74 -6.03,-4.32 -9.72,-4.32 -3.69,0 -7.25,1.58 -9.72,4.32 -21.6,23.94 -52.73,38.94 -87.49,38.95l-81.28 0c-20.73,-0.01 -40.53,-5.46 -57.84,-15.24 -3.13,-1.77 -6.8,-2.17 -10.24,-1.12 -35.74,10.84 -70.99,16.36 -105.08,16.36 -37.84,-0.01 -72.17,-6.72 -102.31,-19.73l-0.24 -0.1c-21.48,-8.79 -41.12,-21.32 -58.67,-37.49 -18,-16.66 -32.31,-36.24 -42.72,-58.49 -4.29,-9.21 -7.71,-18.76 -10.33,-28.63 -1.35,-5.08 -5.59,-8.86 -10.79,-9.6 -5.2,-0.75 -10.33,1.68 -13.05,6.18 -1.48,2.45 -2.8,4.71 -4.09,6.73l-0.24 0.37c-29.43,45.84 -68.41,81.22 -116.33,105.64 -45.72,23.26 -96.78,35.11 -152.23,35.12 -22,0 -43.76,-1.83 -64.61,-5.42l-0.35 -0.08c-0.24,-0.04 -0.62,-0.13 -1.13,-0.22 -2.03,-0.37 -4.23,-0.23 -6.2,0.39 -11.1,3.45 -22.84,5.33 -35,5.33l-81.27 0c-7.22,0 -13.08,5.85 -13.08,13.08 0,7.23 5.86,13.09 13.08,13.09l0 -0.01 81.27 0c13.72,0.01 27.01,-1.98 39.62,-5.59 21.96,3.7 44.7,5.59 67.67,5.59 59.17,0.01 114.54,-12.72 164.1,-37.96 46.6,-23.7 85.73,-57.37 116.24,-99.81 0.97,2.3 1.95,4.59 3.01,6.86l0 0.01c11.81,25.28 28.21,47.72 48.67,66.63l0.01 0.02c19.7,18.16 41.99,32.41 66.29,42.37l0 0.01c0.03,0.01 0.06,0.02 0.09,0.04 0.05,0.01 0.1,0.04 0.14,0.06l0 -0.01c33.74,14.53 71.62,21.79 112.45,21.78 35.22,0 71.26,-5.49 107.45,-15.99 19.92,10.25 42.34,16 65.71,15.99l81.28 0c37.44,0.01 71.62,-14.35 97.21,-37.81 25.59,23.46 59.77,37.82 97.21,37.81 7.23,0 13.09,-5.85 13.09,-13.08 0,-7.23 -5.86,-13.08 -13.09,-13.08z"/>
   <path class="fil2" d="M746.14 1842.11c-21.59,23.94 -52.73,38.94 -87.49,38.95l-81.27 0c-4.01,0 -7.98,-0.21 -11.92,-0.61 -0.95,-0.09 -1.7,-0.09 -2.64,0 -3.94,0.4 -7.94,0.61 -12,0.61l-81.81 0c-24.85,-0.01 -47.79,-7.67 -66.78,-20.78 -18.99,-13.11 -33.94,-31.67 -42.6,-53.37 -1.99,-4.99 -6.81,-8.25 -12.18,-8.24 -5.37,0.02 -10.18,3.29 -12.15,8.29 -8.59,21.83 -23.55,40.52 -42.58,53.71 -19.03,13.2 -42.04,20.92 -66.99,20.92l-81.81 0c-32.56,0 -61.91,-13.16 -83.26,-34.49 -21.33,-21.35 -34.48,-50.7 -34.49,-83.26l0 -371.85c0.01,-32.56 13.16,-61.92 34.49,-83.27 21.35,-21.33 50.7,-34.48 83.26,-34.49 7.23,0 13.09,-5.86 13.09,-13.08 0,-7.23 -5.86,-13.09 -13.09,-13.09l0 0c-39.7,0 -75.76,16.13 -101.77,42.16 -26.02,26 -42.15,62.07 -42.15,101.77l0 371.85c0,39.7 16.13,75.76 42.15,101.77 26.01,26.02 62.07,42.16 101.77,42.15l81.81 0c30.39,0.01 58.69,-9.46 81.91,-25.59 15.98,-11.09 29.53,-25.39 39.9,-41.89 10.38,16.37 23.9,30.54 39.81,41.53 23.18,16.02 51.38,25.42 81.66,25.41l81.81 0c4.49,0 8.92,-0.23 13.32,-0.63 4.37,0.4 8.78,0.63 13.24,0.63l81.27 0c42.4,0.01 80.63,-18.39 106.93,-47.59 4.84,-5.36 4.41,-13.64 -0.96,-18.48 -5.37,-4.83 -13.64,-4.4 -18.48,0.96z"/>
   <path class="fil0" d="M204.67 1073.24c0,-0.01 0.01,-0.03 0.01,-0.03 0.01,-0.02 0.01,-0.04 0.02,-0.06l-0.03 0.09z"/>
   <path class="fil4" d="M746.7 928.95c-11.71,0.31 -23.06,2.07 -33.91,5.01 -15.22,-3.28 -30.7,-5.05 -46.3,-5.05 -19.77,0 -39.61,2.7 -59,7.98l0.02 0 -0.43 0.11 -0.07 0.02c-21.01,5.81 -40.72,14.52 -58.79,25.79 -8.71,-1.91 -17.67,-3.32 -26.82,-4.14l0 0c-0.02,0 -0.04,-0.01 -0.06,-0.01 -0.13,-0.01 -0.26,-0.03 -0.38,-0.04l0 0.01c-5.97,-0.72 -11.98,-1.09 -18.03,-1.09 -0.21,0 -0.43,0.01 -0.65,0.01 -31.93,-18.69 -68.52,-28.67 -106.68,-28.66 -53.54,-0.03 -103.75,21.37 -140.94,60.01 -22.31,22.78 -39.09,51.28 -49.98,84.31 -7.79,23.11 -12.81,47.92 -15,73.79l0 0c0,0.04 0,0.08 0,0.12 -0.01,0.01 -0.01,0.03 -0.01,0.04l0 0c-1.79,18.62 -2.83,37.63 -3.18,57.99 -0.08,5.03 -0.12,10.02 -0.12,14.97 0,14.3 0.35,28.26 1.05,41.71 0.38,7.22 6.54,12.76 13.75,12.38 7.22,-0.37 12.76,-6.53 12.39,-13.75 -0.68,-12.96 -1.03,-26.47 -1.03,-40.34 0,-4.8 0.04,-9.64 0.12,-14.52 0.35,-19.81 1.35,-38.15 3.08,-56.09l0.02 -0.16c2.01,-23.99 6.65,-46.8 13.74,-67.83l0.03 -0.09c9.82,-29.74 24.59,-54.57 43.86,-74.26l0.08 -0.08c32.46,-33.65 75.54,-52 122.14,-52.03 34.79,0 67.79,9.33 96.38,26.78 2.13,1.3 4.64,1.97 7.12,1.92 1.3,-0.04 2.58,-0.05 3.83,-0.05 5.14,0 10.25,0.31 15.29,0.93l0.44 0.05c9.92,0.87 19.55,2.49 28.81,4.78 3.54,0.88 7.32,0.23 10.36,-1.78 17.07,-11.26 35.87,-19.83 56.15,-25.45l0.38 -0.09 0.01 -0.01c17.19,-4.69 34.73,-7.06 52.12,-7.06 14.69,0 29.31,1.71 43.7,5.04 2.23,0.52 4.48,0.45 6.67,-0.2 9.51,-2.82 19.51,-4.41 29.84,-4.73l0 -26.24z"/>
   <path class="fil0" d="M254.61 988.94c0.02,-0.01 0.03,-0.03 0.04,-0.04 0.02,-0.01 0.03,-0.03 0.04,-0.04l-0.08 0.08z"/>
   <path class="fil4" d="M430.7 1224.29c-0.29,-13.45 -0.87,-26.61 -1.76,-39.48 -0.87,-12.57 -2.63,-24.85 -5.55,-36.26 -3.22,-11.4 -7.02,-19.3 -11.99,-24.27 -4.1,-4.1 -9.36,-6.14 -15.8,-6.14 -2.04,0 -3.79,0.88 -5.25,2.34 -12.29,12.57 -16.97,57.61 -13.75,134.52 0.29,10.23 0.58,17.55 0.58,21.64l-45.03 0.29c-0.3,-3.51 -0.59,-10.23 -0.88,-20.18 -0.88,-15.5 -1.17,-31.87 -0.88,-49.13 0.29,-16.96 1.17,-32.75 2.64,-47.66 1.17,-14.63 3.8,-28.36 8.19,-41.24 4.09,-12.57 9.64,-22.51 16.67,-29.53 10.23,-10.82 22.81,-16.38 37.71,-16.38 19.01,0 35.1,6.73 47.96,19.89 6.73,7.01 12.58,15.79 17.26,26.32 14.04,-11.7 28.08,-17.55 42.11,-17.55 0.59,0 1.17,0 2.05,0.29 6.14,0.3 11.99,1.17 17.54,2.93 5.56,1.75 11.12,4.68 16.97,8.48 5.84,4.1 11.11,9.94 15.79,17.84 4.67,7.89 8.19,16.96 10.81,27.78 4.39,17.83 6.44,53.81 6.15,107.91l0 9.64 -45.03 0 0 -9.64c0.29,-50.6 -1.47,-83.05 -4.97,-97.38 -1.18,-4.98 -2.64,-9.36 -4.1,-12.58 -1.76,-3.22 -3.51,-5.56 -5.56,-7.02 -2.04,-1.45 -3.51,-2.34 -4.68,-2.64 -1.16,-0.28 -2.63,-0.28 -4.68,-0.28l-0.29 0c-2.34,0 -5.26,1.17 -8.77,3.51 -3.51,2.34 -7.02,5.26 -10.53,9.06 -3.8,3.8 -7.01,7.9 -10.23,12.29 2.05,18.13 2.63,47.37 2.05,87.43l0 17.55 -45.04 0 0 -18.13c0.58,-9.07 0.58,-20.47 0.29,-34.22z"/>
   <path class="fil2" d="M692.74 1134.22c-3.81,-5.85 -8.78,-9.94 -15.51,-12.28 -6.72,-2.04 -13.45,-2.34 -20.17,-0.29 -14.62,4.09 -24.86,16.09 -30.41,35.96 8.48,2.05 16.96,2.94 24.85,2.94 7.91,0 14.92,-0.89 20.47,-2.35 5.56,-1.46 10.53,-3.21 14.62,-5.26 3.81,-2.05 6.73,-4.68 8.2,-7.31 2.04,-2.92 1.16,-6.73 -2.05,-11.41zm48.54 5.86c0.3,11.69 -2.64,22.51 -9.36,32.45 -8.77,13.75 -22.52,23.4 -40.94,29.54 -18.72,6.14 -39.18,7.31 -61.41,4.09 0.88,0.88 1.47,2.05 2.34,3.22 5.84,6.14 14.33,10.82 25.44,14.03 11.11,3.52 21.06,5.56 29.54,5.86 8.48,0.58 15.79,0.58 22.51,0l3.81 47.37c-4.1,0.29 -8.78,0.59 -13.75,0.59 -7.31,0 -14.62,-0.3 -21.93,-1.18 -7.31,-0.87 -15.79,-2.34 -25.44,-4.68 -9.65,-2.04 -19.3,-5.56 -28.37,-10.52 -9.06,-4.97 -16.96,-10.82 -23.68,-18.14 -16.97,-18.13 -24.28,-41.23 -21.65,-69.59 2.05,-25.15 9.07,-46.5 21.06,-63.75 11.7,-17.25 26.9,-28.37 45.91,-33.63 16.09,-4.39 31.87,-3.8 47.38,1.76 15.5,5.55 27.78,15.48 36.84,29.24 7.32,10.81 11.11,21.92 11.7,33.34z"/>
   <path class="fil5" d="M856.52 1121.94c-1.47,0 -3.52,0.29 -6.44,0.58 -2.92,0.3 -7.61,1.17 -14.04,2.64 -6.43,1.46 -12.28,3.5 -17.83,5.85 -5.56,2.33 -10.53,5.84 -14.92,10.23 -4.39,4.39 -7.01,9.65 -7.9,15.21l0 120.78 -45.03 0 0 -204.42 45.03 0 0 19.01c17.55,-8.48 36.85,-13.45 57.91,-14.91l1.46 22.51 1.76 22.52z"/>
   <path class="fil6" d="M969.4 1121.94c-1.46,0 -3.51,0.29 -6.44,0.58 -2.92,0.3 -7.6,1.17 -14.03,2.64 -6.43,1.46 -12.28,3.5 -17.84,5.85 -5.55,2.33 -10.53,5.84 -14.91,10.23 -4.39,4.39 -7.02,9.65 -7.9,15.21l0 120.78 -45.03 0 0 -204.42 45.03 0 0 19.01c17.55,-8.48 36.85,-13.45 57.9,-14.91l1.46 22.51 1.76 22.52z"/>
   <path class="fil7" d="M1136.97 1152.06c2.63,29.24 -3.22,54.98 -17.55,77.5 -9.94,15.49 -22.81,27.19 -38.89,35.39 -16.08,8.18 -34.22,12.28 -54.39,12.28 -7.9,0 -16.09,-0.59 -24.57,-2.05l7.61 -42.7c16.08,2.63 30.41,1.46 42.98,-2.92 12.29,-4.39 21.94,-11.99 28.95,-22.81 7.9,-12.57 11.7,-27.49 11.11,-44.75 -2.62,4.1 -5.26,7.89 -8.48,11.12 -13.15,14.92 -30.4,22.81 -51.46,23.69 -19.01,0.87 -34.51,-5.27 -45.91,-18.14 -6.14,-6.72 -10.83,-14.92 -13.75,-24.86 -3.22,-9.64 -4.67,-19.59 -4.39,-29.53 0.3,-9.94 0.59,-17.84 1.17,-23.68 0.59,-5.86 1.47,-11.12 2.34,-15.51l22.23 4.1 21.93 4.38c-2.04,7.9 -2.93,18.42 -2.34,31 0.58,12.87 2.92,21.65 7.02,26.03 1.75,2.05 4.97,3.21 9.36,2.92 8.48,-0.29 14.91,-3.21 19.59,-8.48 6.14,-7.01 10.23,-16.67 12.28,-28.95 1.76,-12.28 2.34,-22.52 1.46,-31l40.65 -14.92c19.02,25.45 30.12,52.65 33.05,81.89z"/>
   <path class="fil3" d="M1328.82 1125.22c-10.82,-9.06 -21.35,-14.62 -31.88,-16.37 -1.75,2.63 -2.92,6.43 -3.8,11.7 -0.88,4.96 -0.3,9.94 1.17,14.62 0.58,1.46 1.17,2.63 1.46,2.91 0.29,0.3 1.17,0.3 2.04,0.3 10.25,-0.3 20.77,-4.67 31.01,-13.16zm91.23 -42.4c2.05,43.28 0.88,78.07 -3.8,104.41 -2.63,13.44 -5.85,25.43 -10.23,35.96 -4.39,10.52 -9.07,19 -14.04,25.73 -4.97,6.44 -10.82,11.7 -16.96,16.08 -6.14,4.39 -12.28,7.32 -17.84,9.37 -5.55,1.75 -11.11,2.92 -17.25,3.5 -7.9,0.89 -15.5,0.59 -22.51,-0.58 -7.03,-1.46 -13.17,-3.51 -18.43,-6.15 -5.27,-2.91 -9.94,-6.14 -14.33,-9.64 -4.1,-3.8 -7.61,-7.61 -10.53,-11.99 -2.63,-4.39 -4.97,-8.48 -6.72,-12.28 -1.76,-3.81 -2.93,-7.61 -3.81,-11.12l43.87 -8.77 0 -0.3c0.59,2.05 1.46,3.81 2.34,5.86 1.17,2.04 2.63,4.09 4.67,6.72 2.05,2.34 4.69,4.09 8.49,5.27 3.8,1.16 7.9,1.46 12.57,1.16 2.64,-0.29 4.97,-0.87 7.31,-1.75 2.34,-1.17 4.97,-2.92 7.61,-5.26 2.92,-2.34 5.55,-5.56 7.89,-9.66 2.64,-4.39 4.97,-9.35 7.02,-15.2 2.34,-5.85 4.39,-13.16 5.85,-22.23 1.46,-9.06 2.63,-19.01 3.5,-30.11 -23.09,24.27 -47.95,36.84 -74.86,38.01 -6.14,0.29 -12.28,-0.29 -17.83,-2.04 -5.56,-1.76 -10.53,-4.39 -14.92,-7.61 -4.39,-3.5 -8.18,-7.89 -11.4,-12.87 -6.14,-9.94 -8.78,-21.63 -8.19,-34.8 0.88,-13.45 4.68,-25.15 11.7,-35.38 4.97,-6.73 11.41,-11.7 19.3,-15.21 7.89,-3.8 16.08,-5.55 24.56,-5.26 23.4,0.3 42.99,7.02 59.08,19.59 4.38,-6.43 8.47,-14.33 12.28,-23.39l45.32 -0.29c0,1.46 0,4.67 0.29,10.23z"/>
   <path class="fil1" d="M1536.17 1209.38c6.44,-8.48 9.66,-18.43 9.94,-29.83 0.3,-11.99 -3.21,-23.69 -10.81,-35.09 -7.9,-11.41 -17.55,-17.55 -29.25,-18.72l-1.46 0c-6.72,0 -13.45,3.81 -19.59,11.11 -3.51,4.39 -6.44,10.53 -9.07,18.71 -2.62,8.19 -3.51,17.56 -2.62,27.79 0.58,4.97 1.75,9.94 3.79,14.92 1.76,4.96 4.1,9.35 7.31,13.74 3.22,4.39 7.32,7.6 12.58,9.65 5.26,2.33 11.11,3.22 17.55,2.33 7.89,-0.86 14.91,-5.84 21.63,-14.61zm9.94 -123.99c10.83,7.01 19.89,15.49 27.2,25.73 7.02,10.24 12.58,21.34 16.37,33.34 3.81,12.29 5.56,24.57 5.27,36.55 -0.58,24.27 -8.19,45.62 -22.52,64.04 -14.62,18.42 -32.16,28.95 -52.63,31.59 -3.51,0.29 -7.02,0.59 -10.53,0.59 -22.23,0 -41.23,-8.19 -56.74,-24.28 -15.78,-16.09 -25.14,-37.14 -27.78,-63.16 -0.87,-11.12 -0.58,-21.94 0.88,-32.76 1.47,-10.81 4.39,-20.76 8.48,-30.41 4.1,-9.35 9.36,-17.84 15.8,-25.44 8.48,-9.95 17.84,-17.25 28.65,-22.23 10.53,-4.97 21.06,-6.73 31.59,-5.84 12.87,1.16 24.85,5.26 35.96,12.28z"/>
   <path class="fil8" d="M1816.93 1117.27c-17.84,0 -34.8,5.84 -50.89,17.25 8.49,-2.06 16.96,-3.22 25.16,-3.22 19.29,0 35.38,6.73 48.24,19.88 2.64,2.34 4.97,4.97 7.02,8.19 4.39,-9.65 4.68,-18.43 0.59,-26.61 -4.97,-10.24 -14.33,-15.21 -28.66,-15.49l-1.46 0zm-6.73 69.01c-0.88,-1.47 -2.05,-2.63 -2.92,-3.81 -4.1,-4.1 -9.36,-6.14 -16.08,-6.14 -12,0 -24.58,3.81 -37.44,11.71l0 0.86c21.93,2.64 40.94,1.76 56.44,-2.62zm-56.44 90.95l-45.03 0 0 -190.39 45.03 0 0 1.76c20.77,-11.4 42.69,-16.96 65.51,-16.38 15.2,0.29 28.95,3.81 40.93,11.12 12,7.31 21.36,16.96 27.5,29.54 6.14,12.57 8.48,25.73 7.01,40.06 -1.46,14.32 -6.72,27.78 -15.79,39.77 -3.8,5.27 -8.48,9.94 -13.45,14.33 3.22,16.67 4.39,38.31 4.09,64.63 -0.29,2.92 -0.29,4.67 -0.29,5.56l-45.03 0 0 -6.44c0.29,-16.37 0,-30.13 -1.17,-41.52 -14.33,4.09 -29.83,6.14 -46.5,6.14 -7.31,0 -14.91,-0.3 -22.81,-1.17l0 42.99z"/>
   <path class="fil4" d="M2010.53 1209.38c6.44,-8.48 9.65,-18.43 9.95,-29.83 0.28,-11.99 -3.22,-23.69 -10.83,-35.09 -7.89,-11.41 -17.54,-17.55 -29.24,-18.72l-1.46 0c-6.73,0 -13.45,3.81 -19.59,11.11 -3.51,4.39 -6.43,10.53 -9.07,18.71 -2.63,8.19 -3.5,17.56 -2.63,27.79 0.58,4.97 1.75,9.94 3.8,14.92 1.75,4.96 4.09,9.35 7.31,13.74 3.22,4.39 7.31,7.6 12.58,9.65 5.26,2.33 11.11,3.22 17.54,2.33 7.9,-0.86 14.92,-5.84 21.64,-14.61zm9.95 -123.99c10.81,7.01 19.89,15.49 27.2,25.73 7.01,10.24 12.56,21.34 16.37,33.34 3.8,12.29 5.56,24.57 5.26,36.55 -0.59,24.27 -8.18,45.62 -22.52,64.04 -14.61,18.42 -32.17,28.95 -52.63,31.59 -3.52,0.29 -7.02,0.59 -10.53,0.59 -22.22,0 -41.23,-8.19 -56.73,-24.28 -15.79,-16.09 -25.15,-37.14 -27.79,-63.16 -0.88,-11.12 -0.58,-21.94 0.89,-32.76 1.45,-10.81 4.38,-20.76 8.47,-30.41 4.1,-9.35 9.36,-17.84 15.79,-25.44 8.48,-9.95 17.84,-17.25 28.67,-22.23 10.52,-4.97 21.04,-6.73 31.57,-5.84 12.87,1.16 24.86,5.26 35.98,12.28z"/>
   <path class="fil2" d="M2236.59 1086.26l0 190.97 -45.32 0 0 -11.12c-6.14,2.93 -12.58,4.98 -19.31,6.43 -4.97,0.88 -9.64,1.17 -14.32,1.17 -22.23,0 -40.65,-8.76 -54.98,-26.32 -4.39,-5.26 -7.9,-10.82 -10.82,-16.66 -3.22,-5.85 -5.55,-12.87 -7.6,-21.35 -2.05,-8.48 -3.51,-16.38 -4.68,-23.98 -1.17,-7.61 -2.05,-18.13 -2.63,-31.29 -0.59,-13.17 -0.89,-25.15 -0.89,-35.97 -0.28,-10.82 -0.28,-26.03 -0.28,-45.33l45.03 0c0,48.55 0.88,82.47 2.93,101.77 1.75,19.3 6.14,33.04 13.15,41.52 6.73,8.48 15.8,11.41 27.2,9.37 5.85,-0.89 11.41,-3.23 16.38,-7.03 4.97,-3.5 8.48,-7.31 10.82,-11.4l0 -120.78 45.32 0z"/>
   <path class="fil5" d="M2398.91 1267.57l0 9.66 -45.03 0 0 -9.66 0 -21.05c-0.29,-4.97 -0.29,-12.58 -0.29,-22.23 -0.3,-9.65 -0.59,-17.83 -0.89,-23.97 -0.58,-6.14 -1.16,-13.76 -1.75,-22.23 -0.87,-8.48 -1.75,-15.21 -2.92,-20.76 -1.17,-5.56 -2.63,-10.83 -4.09,-16.09 -1.76,-4.97 -3.8,-8.78 -6.14,-11.4 -2.64,-2.64 -5.27,-3.8 -8.19,-4.1l-0.3 0c-3.51,0 -8.18,2.63 -14.04,7.9 -6.14,5.55 -11.4,11.69 -16.37,18.72l0 124.87 -45.03 0 0 -204.42 45.03 0 0 16.96c10.82,-6.43 21.64,-9.35 32.46,-9.07 6.14,0.3 12.28,1.18 17.84,3.23 5.56,2.05 11.11,5.55 16.97,9.94 5.84,4.38 11.1,11.11 15.78,19.88 4.68,8.77 8.19,19.3 10.82,31.58 4.1,19.6 6.14,60.24 6.14,122.24z"/>
   <path class="fil6" d="M2512.68 1201.77c-1.46,-3.21 -3.51,-6.73 -6.14,-10.52 -2.63,-3.51 -5.85,-7.31 -9.36,-11.41 -3.8,-3.8 -7.89,-7.31 -12.57,-9.95 -4.68,-2.63 -9.06,-3.8 -13.46,-3.8l-1.74 0c-4.98,0.3 -9.36,5.28 -13.75,14.63 -4.39,9.36 -6.44,19.3 -5.56,29.83 0.29,5.26 0.88,9.35 2.34,12.58 1.46,3.21 3.22,5.55 5.27,6.72 2.04,1.17 3.51,1.76 4.67,2.04 1.17,0.3 2.64,0.3 4.39,0.3 14.92,-0.88 30.12,-10.83 45.91,-30.42zm76.91 -128.96l-0.58 204.42 -45.04 0 0.58 -42.71c-23.68,27.2 -48.83,41.24 -75.74,42.71l-3.5 0c-16.96,0 -31,-5.86 -41.82,-17.56 -11.11,-11.39 -17.26,-26.9 -18.42,-46.2 -0.88,-14.33 0.88,-28.07 5.55,-41.82 4.39,-13.74 11.7,-25.15 21.64,-34.8 9.65,-9.64 21.06,-14.91 33.93,-15.79 26.9,-2.04 51.17,11.11 73.1,39.19 2.05,-4.1 3.81,-7.89 5.26,-11.4l0 -76.04 45.04 0z"/>
   <path class="fil7" d="M370.75 1502.48c-0.53,-4.77 -1.06,-7.96 -1.59,-10.62 -0.54,-2.13 -1.6,-3.19 -2.12,-3.72 -19.66,-12.22 -44.1,-8.5 -74.38,12.22 7.97,14.87 15.41,27.1 23.38,36.65 7.43,9.56 13.28,15.4 17.53,18.06 3.72,2.65 6.9,4.25 9.55,3.73 3.73,-0.54 8.5,-4.25 13.82,-12.23 5.31,-7.43 9.03,-16.46 11.68,-27.09 1.6,-6.37 2.13,-12.21 2.13,-17zm75.96 -36.11c6.91,21.77 7.44,45.14 1.6,71.18 -5.85,26.02 -17,49.4 -34,69.58 -17,20.18 -37.72,31.88 -62.15,34.53 -3.19,0.54 -6.37,0.54 -10.09,0.54 -40.91,0 -78.09,-27.64 -110.49,-82.88 -1.07,1.6 -2.13,2.65 -3.19,3.73l-2.66 -1.6 0 202.39 -81.81 0 0 -371.85 81.81 0 0 54.72c18.59,-15.4 37.72,-27.63 56.84,-36.65 18.59,-8.5 39.84,-12.75 62.68,-12.75 22.84,0.52 44.62,6.91 65.34,20.18 17.53,11.16 29.22,27.63 36.12,48.88z"/>
   <polygon class="fil3" points="469.01,1391.99 550.82,1391.99 550.82,1763.3 469.01,1763.3 "/>
   <path class="fil1" d="M700.61 1498.77c-23.9,27.09 -38.77,74.36 -43.56,140.77l26.57 0c9.03,0.52 19.12,-0.53 29.21,-2.13 10.09,-1.6 19.66,-3.19 29.75,-5.85 10.09,-2.11 19.65,-5.84 29.21,-10.61 9.57,-4.79 18.6,-10.63 26.57,-17 7.97,-5.84 15.93,-13.82 22.84,-23.38 6.91,-9.56 12.21,-20.19 16.46,-31.87 -6.9,-21.24 -15.93,-38.24 -27.08,-50.47 -14.35,-15.93 -32.41,-23.9 -54.72,-23.9 -22.84,0 -40.9,7.97 -55.25,24.44zm-123.76 264.01c-1.07,-9.57 -2.13,-20.73 -2.67,-33.48 -1.06,-12.21 -1.06,-32.4 -0.53,-60.55 0.53,-27.62 2.13,-53.65 5.85,-78.09 3.72,-24.44 10.62,-50.46 20.72,-78.61 10.09,-27.63 23.37,-50.47 39.31,-68.53 30.27,-34.53 69.05,-51.53 116.33,-51.53 47.27,0 86.05,17 116.34,51.53 15.93,18.06 29.21,40.9 39.3,68.53 10.1,28.15 16.47,54.17 20.19,78.61 3.71,24.97 5.84,51 6.37,78.63 0.53,27.61 0,47.8 -0.53,60.55 -1.06,12.75 -2.13,23.9 -3.18,33.46l-81.28 0 0 -9.56 0 -0.53c3.18,-27.09 4.25,-56.84 2.66,-90.3 -46.22,39.84 -106.25,60.03 -180.61,60.03 -5.85,0 -12.22,0 -19.13,-0.54 0.53,11.16 1.6,21.79 2.66,30.81l0 10.09 -81.27 0 0.52 -0.52 -1.05 0z"/>
   <path class="fil8" d="M1242.96 1535.95c4.78,53.12 -5.85,99.86 -31.88,140.76 -18.06,28.17 -41.43,49.41 -70.64,64.29 -29.22,14.87 -62.16,22.3 -98.81,22.3 -14.35,0 -29.21,-1.06 -44.63,-3.71l13.82 -77.55c29.21,4.77 55.25,2.65 78.09,-5.33 22.31,-7.96 39.83,-21.77 52.58,-41.42 14.35,-22.84 21.25,-49.94 20.19,-81.28 -4.78,7.44 -9.56,14.35 -15.41,20.19 -23.9,27.1 -55.24,41.43 -93.49,43.02 -34.53,1.59 -62.68,-9.56 -83.4,-32.92 -11.15,-12.23 -19.65,-27.1 -24.96,-45.16 -5.84,-17.53 -8.5,-35.59 -7.97,-53.66 0.53,-18.06 1.06,-32.4 2.13,-43.02 1.05,-10.63 2.65,-20.19 4.25,-28.15l40.37 7.43 39.83 7.97c-3.71,14.35 -5.3,33.46 -4.25,56.31 1.07,23.37 5.32,39.3 12.75,47.28 3.19,3.71 9.04,5.84 17,5.31 15.41,-0.54 27.09,-5.85 35.59,-15.4 11.16,-12.75 18.6,-30.29 22.32,-52.6 3.18,-22.3 4.25,-40.9 2.65,-56.3l73.84 -27.09c34.53,46.21 54.72,95.61 60.03,148.73z"/>
   <path class="fil4" d="M1471.36 1737.28c-6.9,-6.38 -12.22,-13.82 -15.94,-21.78 -3.71,-7.96 -5.3,-16.46 -5.3,-25.5l0 -298.01 81.8 0 0 289.51c13.81,3.71 33.99,2.65 61.09,-3.71 27.09,-5.85 51.52,-19.13 73.3,-38.79l55.78 58.96c-23.9,21.25 -51,37.19 -81.28,48.34 -30.28,11.16 -60.02,17 -88.18,17 -22.31,0 -41.43,-3.71 -56.84,-10.61 -9.55,-3.73 -17.52,-9.04 -24.43,-15.41z"/>
   <path class="fil2" d="M1849.03 1498.77c-23.91,27.09 -38.77,74.36 -43.56,140.77l26.56 0c9.03,0.52 19.13,-0.53 29.22,-2.13 10.09,-1.6 19.66,-3.19 29.75,-5.85 10.09,-2.11 19.65,-5.84 29.21,-10.61 9.57,-4.79 18.59,-10.63 26.57,-17 7.97,-5.84 15.93,-13.82 22.83,-23.38 6.91,-9.56 12.22,-20.19 16.47,-31.87 -6.9,-21.24 -15.93,-38.24 -27.08,-50.47 -14.35,-15.93 -32.42,-23.9 -54.72,-23.9 -22.84,0 -40.91,7.97 -55.25,24.44zm-123.77 264.01c-1.06,-9.57 -2.13,-20.73 -2.66,-33.48 -1.06,-12.21 -1.06,-32.4 -0.53,-60.55 0.53,-27.62 2.13,-53.65 5.85,-78.09 3.71,-24.44 10.62,-50.46 20.71,-78.61 10.09,-27.63 23.38,-50.47 39.31,-68.53 30.28,-34.53 69.06,-51.53 116.34,-51.53 47.27,0 86.05,17 116.32,51.53 15.95,18.06 29.22,40.9 39.32,68.53 10.1,28.15 16.47,54.17 20.18,78.61 3.72,24.97 5.85,51 6.38,78.63 0.53,27.61 0.26,47.82 -0.53,60.55 -0.8,12.77 -2.13,23.9 -3.19,33.46l-81.27 0 0 -2.85c0,-4.83 0.3,-9.61 0.79,-14.41 2.56,-25.14 3.32,-52.59 1.86,-83.13 -46.21,39.84 -106.24,60.03 -180.6,60.03 -5.85,0 -12.22,0 -19.13,-0.54 0.53,11.16 1.6,21.79 2.66,30.81l0 10.09 -81.28 0 0.53 -0.52 -1.06 0z"/>
   <path class="fil1" d="M2190.58 1762.78l-81.81 0 0 -370.79 81.81 0c14.35,47.28 35.07,89.24 62.68,124.83 27.63,36.13 56.84,62.15 87.13,78.09l0 -202.92 81.8 0 0 347.33 -81.8 0 0 -53.57c-27.1,-7.96 -53.13,-22.31 -78.63,-41.96 -26.03,-19.66 -49.4,-43.57 -71.18,-71.72l0 190.71z"/>
   <path class="fil8" d="M2636.24 1626.26c-2.65,-5.85 -6.38,-12.21 -11.15,-19.13 -4.78,-6.37 -10.62,-13.28 -17,-20.72 -6.9,-6.9 -14.35,-13.27 -22.84,-18.05 -8.5,-4.79 -16.47,-6.91 -24.43,-6.91l-3.2 0c-9.03,0.52 -17,9.56 -24.96,26.56 -7.97,17 -11.69,35.05 -10.09,54.19 0.53,9.55 1.59,17 4.25,22.84 2.65,5.84 5.84,10.09 9.55,12.21 3.72,2.13 6.38,3.19 8.5,3.71 2.13,0.54 4.79,0.54 7.97,0.54 27.1,-1.6 54.72,-19.65 83.4,-55.24zm139.71 -234.27l-1.06 371.31 -81.81 0 1.07 -77.55c-43.03,49.4 -88.72,74.9 -137.58,77.55l-6.38 0c-30.81,0 -56.31,-10.61 -75.96,-31.86 -20.2,-20.73 -31.35,-48.88 -33.47,-83.94 -1.59,-26.03 1.59,-50.99 10.09,-75.95 7.97,-24.98 21.25,-45.69 39.32,-63.23 17.52,-17.51 38.24,-27.09 61.61,-28.68 48.88,-3.72 92.96,20.18 132.8,71.18 3.72,-7.43 6.91,-14.34 9.57,-20.71l0 -138.12 81.8 0z"/>
   <path class="fil9" d="M2135.77 803.68c-3.93,3.96 -9.58,8.53 -16.3,11.37 -4.35,1.84 -9.16,3.02 -14.45,3.02 -11.06,0 -20.28,-1.42 -27.21,-3.05 0.67,-8.74 2.48,-16.2 5.02,-22.58 4.78,-11.91 11.88,-20.11 17.84,-25.37 1.57,-1.42 3.08,-2.6 4.41,-3.6l15.88 18.39 16.93 19.59c-0.64,0.69 -1.33,1.45 -2.12,2.23zm-75.52 6.08c-2.63,-0.09 -5.26,0.88 -7.07,2.96 -0.09,0.09 -1.33,1.51 -3.27,3.99 -7.56,-1.9 -22.25,-6.1 -38.61,-13.45 -11.63,-5.2 -24.09,-11.97 -35.43,-20.5 -9.88,-7.43 -18.89,-16.17 -25.94,-26.33 6.47,-10.46 13.18,-20.83 20.26,-30.08 6.38,-8.37 13.03,-15.81 19.83,-21.62 6.77,-5.8 13.67,-9.88 20.53,-11.94 2.54,-0.78 4.62,-2.66 5.68,-5.11 1.03,-2.48 0.91,-5.29 -0.3,-7.65 -3.2,-6.1 -4.47,-13.6 -4.44,-21.04 0,-7.1 1.11,-13.99 2.32,-19.22 4.33,2.32 7.95,5.01 10.92,7.95 7.01,7.01 10.67,15.47 12.51,22.28 0.94,3.38 1.42,6.35 1.64,8.37 0.12,1.03 0.18,1.81 0.21,2.3l0.03 0.54 0 0.06c0,2.24 0.84,4.3 2.24,5.87 1.39,1.6 3.32,2.69 5.53,2.96 13.03,1.78 21.95,7.35 27.78,12.46 2.9,2.57 5.02,5.02 6.32,6.74 0.66,0.88 1.15,1.57 1.42,1.99l0.15 0.22c8.04,18.01 8.16,31.38 8.16,31.92l0 0.12c0,2.15 0.79,4.26 2.21,5.87l0.36 0.45c-3.69,2.81 -8.01,6.62 -12.42,11.7 -5.35,6.17 -10.73,14.18 -14.72,24.22 -2.82,6.98 -4.87,15.02 -5.9,23.97zm-129.69 -56.11c-5.84,9.61 -11.31,18.96 -16.51,27.27 -5.2,8.28 -10.1,15.51 -14.57,20.8 -0.06,0.06 -0.09,0.15 -0.12,0.21 4.26,-13.54 13.3,-39.6 27.08,-66.33 9.38,-18.23 20.95,-36.73 34.44,-51.64 9.97,-11.06 20.92,-20.07 32.65,-25.9 -0.03,0.3 -0.03,0.6 -0.03,0.93 0,6.41 0.72,13.34 2.78,20.14 -9.49,4.56 -18.02,11.36 -25.85,19.32 -15.3,15.66 -28.2,35.97 -39.87,55.2zm-22.98 141.21c-1.48,5.32 -3.6,10.25 -6.47,14.66 -4.32,6.57 -10.25,12.07 -18.99,16.15 -8.7,4.08 -20.4,6.68 -35.97,6.68 -9.1,0 -19.56,-1.45 -29.96,-4.84 -15.6,-5.11 -30.99,-14.48 -42.57,-29.81 -11.4,-15.17 -19.35,-36.4 -19.53,-66.51 0.3,-1.18 0.7,-1.9 0.97,-2.32 0.57,-0.76 1,-0.97 1.6,-1.21l0.88 -0.21 0.27 -0.04c2.69,0.28 5.32,0.52 7.92,0.76 13.21,1.15 25.67,1.72 37.52,1.72 20.29,0 38.79,-1.66 56.08,-4.74 0.06,0 0.12,-0.03 0.21,-0.03 10.67,-1.91 20.89,-4.33 30.78,-7.26 2.99,-0.88 5.35,-3.26 6.16,-6.29l0.09 -0.36c0.13,-0.48 0.43,-1.54 0.88,-3.05 0.06,0.93 0.24,1.84 0.61,2.75l0 0.03c0.3,0.69 3.41,8.58 6.44,20.01 3.05,11.4 5.92,26.39 5.92,41.03 0,7.95 -0.85,15.78 -2.84,22.88zm-919.59 -375.9l-113.22 -123.26c5.17,-0.03 1204.22,-0.03 1209.36,0l-113.21 123.26 -982.93 0zm137.86 298.9c2.99,-0.88 5.35,-3.26 6.16,-6.29l0.09 -0.36c0.12,-0.48 0.43,-1.54 0.88,-3.05 0.06,0.93 0.24,1.84 0.6,2.75l0 0.03c0.31,0.69 3.42,8.58 6.44,20.01 3.06,11.4 5.93,26.39 5.93,41.03 0,7.95 -0.85,15.78 -2.84,22.88 -1.48,5.32 -3.6,10.25 -6.47,14.66 -4.33,6.57 -10.25,12.07 -18.96,16.15 -8.74,4.08 -20.44,6.68 -36,6.68 -9.1,0 -19.56,-1.45 -29.96,-4.84 -15.6,-5.11 -30.99,-14.48 -42.54,-29.81 -11.43,-15.17 -19.38,-36.4 -19.56,-66.51 0.3,-1.18 0.7,-1.9 1,-2.32 0.54,-0.76 0.97,-0.97 1.57,-1.21l0.88 -0.21 0.3 -0.04c2.69,0.28 5.29,0.52 7.89,0.76 13.21,1.15 25.67,1.72 37.52,1.72 20.28,0 38.78,-1.66 56.08,-4.74 0.06,0 0.15,-0.03 0.21,-0.03 10.67,-1.91 20.89,-4.33 30.78,-7.26zm36.12 -82.26c9.4,-18.23 20.95,-36.73 34.44,-51.64 9.97,-11.06 20.92,-20.07 32.65,-25.9 -0.03,0.3 -0.03,0.6 -0.03,0.93 0,6.41 0.72,13.34 2.78,20.14 -9.5,4.56 -18.02,11.36 -25.82,19.32 -15.33,15.66 -28.24,35.97 -39.91,55.2 -5.83,9.61 -11.3,18.96 -16.5,27.27 -5.2,8.28 -10.1,15.51 -14.55,20.8 -0.05,0.06 -0.09,0.15 -0.15,0.21 4.27,-13.54 13.31,-39.6 27.09,-66.33zm84.11 -42.81c2.54,-0.78 4.65,-2.66 5.68,-5.11 1.03,-2.48 0.91,-5.29 -0.3,-7.65 -3.21,-6.1 -4.48,-13.6 -4.45,-21.04 0,-7.1 1.12,-13.99 2.33,-19.22 4.36,2.32 7.95,5.01 10.92,7.95 7.01,7.01 10.67,15.47 12.51,22.28 0.94,3.38 1.42,6.35 1.63,8.37 0.12,1.03 0.19,1.81 0.22,2.3l0.03 0.54 0 0.06c0.03,2.24 0.84,4.3 2.23,5.87 1.39,1.6 3.33,2.69 5.54,2.96 13.06,1.78 21.94,7.35 27.78,12.46 2.9,2.57 5.02,5.02 6.32,6.74 0.66,0.88 1.15,1.57 1.42,1.99l0.15 0.25c8.04,18.01 8.16,31.35 8.16,31.89l0 0.12c0,2.15 0.79,4.26 2.21,5.87l0.36 0.45c-3.69,2.81 -8.01,6.62 -12.42,11.7 -5.35,6.17 -10.71,14.18 -14.73,24.22 -2.81,6.98 -4.86,15.02 -5.89,23.97 -2.63,-0.09 -5.26,0.88 -7.08,2.96 -0.09,0.09 -1.33,1.51 -3.26,3.99 -7.56,-1.9 -22.25,-6.1 -38.61,-13.45 -11.64,-5.2 -24.09,-11.97 -35.43,-20.5 -9.88,-7.43 -18.89,-16.17 -25.94,-26.33 6.47,-10.46 13.18,-20.83 20.26,-30.08 6.38,-8.37 13.06,-15.81 19.83,-21.62 6.8,-5.8 13.66,-9.88 20.53,-11.94zm86.97 -18.08c6.5,4.48 11.73,8.83 15.72,12.46l-19.77 8.98c-1.78,-2.12 -4.05,-4.57 -6.92,-7.08 -6.71,-5.95 -16.72,-12.27 -30.17,-15.44 -0.7,-4.63 -2.15,-10.95 -5.11,-17.93 -0.27,-0.67 -0.64,-1.36 -0.97,-2.03 19.17,4.33 35.19,12.76 47.22,21.04zm7.56 88.76l15.87 18.39 16.93 19.59c-0.63,0.69 -1.33,1.45 -2.08,2.23 -3.96,3.96 -9.62,8.53 -16.33,11.37 -4.35,1.84 -9.16,3.02 -14.42,3.02 -11.06,0 -20.31,-1.42 -27.24,-3.05 0.67,-8.74 2.48,-16.2 5.02,-22.58 4.78,-11.91 11.91,-20.11 17.84,-25.37 1.57,-1.42 3.08,-2.6 4.41,-3.6zm-190.52 -422.03l176.52 0c-21.94,20.07 -39.42,31.89 -45.74,35.91l-247.87 0c36.49,-8.04 76.25,-19.53 117.09,-35.91zm106.51 -54.3l120.2 0c-10.7,13.7 -21.44,25.79 -31.68,36.31l-154.12 0c21.91,-10.52 43.89,-22.55 65.6,-36.31zm72.92 -54.32l83.59 0c-7.38,13.03 -15.12,25.12 -23.04,36.33l-106.69 0c15.66,-11.09 31.05,-23.18 46.14,-36.33zm54.47 -54.3l55.09 0c-5.05,12.76 -10.55,24.85 -16.39,36.31l-73.43 0c11.88,-11.37 23.49,-23.46 34.73,-36.31zm42.36 -54.27l30.14 0c-3.14,12.61 -6.77,24.7 -10.76,36.28l-46.53 0c9.34,-11.52 18.38,-23.61 27.15,-36.28zm42.08 -70.65c-1.66,18.38 -4.32,35.95 -7.83,52.66l-22.28 0c10.61,-16.59 20.65,-34.16 30.11,-52.66zm8.19 63.85c0.07,-0.21 0.1,-0.42 0.16,-0.66 0.93,-4.18 1.81,-8.41 2.66,-12.7 4.74,24.46 11.18,47.28 18.83,68.5 15.78,43.57 36.64,80.27 58.38,110.56 0.03,0.03 0.06,0.06 0.06,0.09 14.66,20.38 29.72,37.85 43.87,52.48l2.99 3c0.03,0.06 0.09,0.09 0.12,0.15 16.45,16.6 31.56,29.41 43.35,38.48l-335.15 0c11.79,-9.1 26.91,-21.85 43.38,-38.54l0.03 0c0,-0.03 0,-0.03 0.03,-0.03l0 -0.03c15.03,-15.18 31.11,-33.59 46.74,-55.36 0.06,-0.06 0.09,-0.12 0.15,-0.18 0,-0.03 0,-0.03 0.03,-0.03 11.82,-16.48 23.37,-34.8 33.96,-55.17l0 -0.03c8.94,-17.05 17.17,-35.55 24.36,-55.39 6.29,-17.29 11.7,-35.67 16.05,-55.14zm43.93 -11.19l-22.25 0c-3.51,-16.77 -6.23,-34.31 -7.89,-52.78 9.46,18.56 19.53,36.16 30.14,52.78zm39.15 54.27l-46.53 0c-3.99,-11.58 -7.58,-23.7 -10.76,-36.28l30.14 0c8.77,12.67 17.81,24.76 27.15,36.28zm49.94 54.3l-73.55 0c-5.8,-11.46 -11.28,-23.55 -16.32,-36.31l55.11 0c11.27,12.85 22.88,24.94 34.76,36.31zm65.97 54.32l-106.84 0c-7.89,-11.18 -15.63,-23.34 -23.01,-36.33l83.75 0c15.05,13.12 30.44,25.24 46.1,36.33zm92.42 54.3l-154.27 0 -0.28 -0.27c-10.15,-10.46 -20.79,-22.49 -31.38,-36.04l120.27 0c21.73,13.79 43.74,25.79 65.66,36.31zm127.06 46.47c10.49,2.75 20.77,5.23 30.81,7.43l-247.87 0c-6.32,-4.05 -23.79,-15.84 -45.74,-35.91l176.52 0c29.6,11.88 58.65,21.19 86.28,28.48zm202.44 304.79c6.5,4.48 11.73,8.83 15.69,12.46l-19.75 8.98c-1.78,-2.12 -4.05,-4.57 -6.92,-7.08 -6.71,-5.95 -16.75,-12.27 -30.17,-15.44 -0.69,-4.63 -2.15,-10.95 -5.11,-17.93 -0.27,-0.67 -0.63,-1.36 -0.97,-2.03 19.17,4.33 35.19,12.76 47.23,21.04zm-396.31 172.23c-1.73,-1.02 -3.72,-2.17 -5.99,-3.29 -7.89,-3.96 -18.95,-8.01 -31.95,-8.01 -14.3,-0.03 -26.85,5.38 -37.1,12.94 -15.42,11.36 -26.39,27.45 -33.86,40.69 -3.02,5.38 -5.41,10.28 -7.22,14.24l-38.64 -22.16c4.08,-8.16 11.79,-22.13 22.83,-35.8 8.28,-10.34 18.41,-20.4 29.95,-27.72 11.58,-7.35 24.4,-12 38.79,-12 27.36,0.03 47.16,9.79 60.44,19.59 5.89,4.35 10.37,8.68 13.57,12.15 -3.57,2.66 -7.19,5.75 -10.82,9.37zm-764.47 0c-1.73,-1.02 -3.72,-2.17 -5.99,-3.29 -7.89,-3.96 -18.96,-8.01 -31.96,-8.01 -14.29,-0.03 -26.84,5.38 -37.09,12.94 -15.42,11.36 -26.39,27.45 -33.86,40.69 -3.02,5.38 -5.41,10.28 -7.2,14.24l-38.66 -22.16c4.08,-8.16 11.79,-22.13 22.82,-35.8 8.29,-10.34 18.41,-20.4 29.96,-27.72 11.58,-7.35 24.4,-12 38.82,-12 27.33,0.03 47.13,9.79 60.4,19.59 5.9,4.35 10.37,8.68 13.58,12.15 -3.57,2.66 -7.2,5.75 -10.82,9.37zm1219.61 -51.63l-21.8 -25.21 -20.92 -24.22 -5.08 -5.87c-0.36,-5.14 -1.69,-15.23 -6.41,-28.05l30.29 -13.76c2.54,-1.15 4.42,-3.47 5.05,-6.19 0.61,-2.72 -0.09,-5.63 -1.87,-7.77 -0.36,-0.43 -10.16,-12.1 -27.88,-24.31 -17.08,-11.79 -41.72,-24.12 -72.31,-26.72 -6.35,-5.84 -14.45,-10.95 -24.7,-14.27 -4.59,-1.52 -9.55,0.87 -11.22,5.41 -0.09,0.33 -2.02,5.47 -3.68,13.3 -19.32,6.86 -35.83,20.07 -49.77,35.88 -22.82,25.97 -39.33,59.14 -50.39,85.92 -7.83,19.05 -12.85,34.8 -15.12,42.48 -4.56,1.24 -9.19,2.42 -13.9,3.45l0 -268.43 108.23 0c2.5,0 4.92,-1.06 6.62,-2.9l130.05 -141.61c0.03,-0.03 0.06,-0.09 0.09,-0.12 0.46,-0.52 0.85,-1.12 1.21,-1.76 0.12,-0.24 0.22,-0.48 0.34,-0.72 0.21,-0.49 0.36,-1 0.48,-1.54 0.06,-0.21 0.12,-0.43 0.15,-0.64 0.09,-0.6 0.12,-1.24 0.09,-1.87 0,-0.06 -0.03,-0.15 -0.03,-0.24 -0.03,-0.25 -0.09,-0.52 -0.15,-0.79 -0.09,-0.54 -0.24,-1.09 -0.42,-1.6 -0.06,-0.15 -0.06,-0.3 -0.12,-0.43 -0.03,-0.06 -0.1,-0.12 -0.12,-0.18 -0.31,-0.66 -0.7,-1.3 -1.15,-1.84 -0.15,-0.18 -0.31,-0.33 -0.46,-0.49 -0.39,-0.42 -0.81,-0.78 -1.27,-1.14 -0.18,-0.12 -0.33,-0.24 -0.51,-0.37 -0.61,-0.36 -1.27,-0.69 -2,-0.9 -0.15,-0.06 -0.3,-0.09 -0.48,-0.12 -0.61,-0.19 -1.27,-0.28 -1.94,-0.28 -0.09,-0.03 -0.21,-0.06 -0.33,-0.06l-38.57 0c-51.88,-1.81 -150.32,-11.49 -254.62,-54.11 -60.28,-24.61 -122.47,-60.16 -179,-111.47 -31.53,-28.63 -61.31,-62.18 -88.03,-101.54 -10.58,-15.58 -20.65,-32.05 -30.17,-49.49 -9.56,-17.45 -18.51,-35.83 -26.82,-55.27 -0.09,-0.21 -0.21,-0.36 -0.3,-0.57 -0.15,-0.3 -0.3,-0.61 -0.52,-0.88 -0.15,-0.24 -0.33,-0.45 -0.51,-0.7 -0.21,-0.21 -0.36,-0.45 -0.57,-0.66 -0.25,-0.21 -0.49,-0.39 -0.73,-0.6 -0.21,-0.19 -0.39,-0.37 -0.64,-0.52 -0.3,-0.21 -0.6,-0.36 -0.93,-0.51 -0.18,-0.09 -0.34,-0.21 -0.55,-0.3 -0.03,0 -0.06,0 -0.09,-0.04 -0.33,-0.12 -0.72,-0.24 -1.09,-0.33 -0.21,-0.06 -0.39,-0.15 -0.6,-0.18 -0.33,-0.06 -0.69,-0.06 -1.03,-0.09 -0.24,-0.03 -0.48,-0.09 -0.69,-0.09 -0.31,0 -0.58,0.06 -0.88,0.09 -0.3,0.03 -0.58,0.03 -0.88,0.09 -0.21,0.06 -0.45,0.12 -0.66,0.21 -0.36,0.09 -0.7,0.18 -1.03,0.3 -0.03,0.04 -0.06,0.04 -0.12,0.04 -0.18,0.09 -0.36,0.21 -0.55,0.33 -0.3,0.15 -0.6,0.27 -0.87,0.48 -0.03,0 -0.06,0.03 -0.09,0.03 -0.21,0.15 -0.4,0.33 -0.61,0.52 -0.21,0.15 -0.45,0.33 -0.63,0.51 -0.03,0.03 -0.09,0.06 -0.12,0.12 -0.18,0.18 -0.34,0.39 -0.49,0.6 -0.03,0.04 -0.06,0.07 -0.09,0.1 -0.12,0.18 -0.3,0.33 -0.42,0.51 -0.03,0.03 -0.06,0.09 -0.09,0.15 -0.09,0.15 -0.15,0.27 -0.24,0.42 -0.21,0.37 -0.43,0.73 -0.58,1.12 -37.64,87.86 -88.49,154.88 -144.96,206.15 -84.77,76.94 -182.39,118.48 -266.92,140.76 -69.44,18.29 -129.93,23.52 -166.78,24.82l-38.49 0c-0.12,0 -0.21,0.03 -0.33,0.03 -0.67,0.03 -1.33,0.12 -1.97,0.31 -0.15,0.03 -0.3,0.06 -0.45,0.12 -0.7,0.21 -1.39,0.54 -2.03,0.93 -0.15,0.1 -0.27,0.22 -0.42,0.31 -0.51,0.36 -0.97,0.75 -1.36,1.21 -0.15,0.15 -0.27,0.27 -0.39,0.42 -0.49,0.57 -0.88,1.21 -1.21,1.9 0,0.06 -0.06,0.09 -0.09,0.15 -0.03,0.1 -0.03,0.22 -0.09,0.34 -0.22,0.57 -0.37,1.15 -0.49,1.78 -0.03,0.21 -0.09,0.42 -0.09,0.67 -0.03,0.09 -0.06,0.18 -0.06,0.27 -0.03,0.66 0,1.3 0.09,1.9 0.03,0.18 0.09,0.34 0.12,0.52 0.12,0.57 0.3,1.14 0.55,1.69 0.09,0.21 0.18,0.42 0.3,0.6 0.33,0.67 0.76,1.3 1.24,1.85 0.03,0.03 0.03,0.06 0.06,0.09l130.06 141.61c1.69,1.84 4.14,2.9 6.62,2.9l100.16 0 0 271.72c-14.06,2.09 -29.03,3.24 -45.41,3.24 -11.28,0 -23.22,-0.55 -35.92,-1.67l-0.03 0c-2.69,-0.24 -5.38,-0.48 -8.1,-0.75l-0.27 -0.03c-0.21,-0.03 -0.55,-0.03 -1,-0.03 -1.87,0 -6.05,0.21 -10.79,2.9 -2.36,1.33 -4.81,3.39 -6.74,6.17 -1.09,1.51 -1.97,3.23 -2.73,5.11 -2.87,1.17 -6.28,2.63 -10,4.44 -3.87,-4.5 -9.95,-10.73 -18.5,-17.08 -15.54,-11.55 -39.34,-23.13 -71.11,-23.13 -18.68,0 -35.25,6.23 -49.13,15.24 -20.86,13.51 -36.21,33.07 -46.58,49.19 -10.37,16.14 -15.69,28.99 -15.84,29.32 -1.76,4.17 -0.1,8.98 3.83,11.25l54.63 31.35c2.33,1.33 5.08,1.54 7.59,0.63 2.51,-0.94 4.45,-2.9 5.35,-5.41 0.12,-0.33 1.79,-4.84 4.9,-11.34 3.11,-6.5 7.65,-14.96 13.51,-23.24 5.81,-8.26 12.94,-16.3 20.86,-22.01 8.02,-5.75 16.54,-9.19 26.09,-9.22 9.13,0 17.69,2.99 23.92,6.13 0.78,0.4 1.54,0.79 2.26,1.18 -6.68,9.31 -13,20.89 -18.53,35.34 -9.91,25.88 -28.2,76.67 -44.38,122.11l19.08 0c15.63,-43.81 32.71,-91.24 42.11,-115.7 6.59,-17.23 14.15,-29.32 21.65,-38.09 7.04,-8.16 13.99,-13.45 20.46,-17.29 2.33,-1.39 4.6,-2.51 6.78,-3.57 1.27,16.72 4.89,31.29 10.37,43.75 10.31,23.58 27.14,39.54 45.25,49.27 18.11,9.8 37.46,13.61 53.91,13.61 15.6,0 28.69,-2.33 39.6,-6.65 8.19,-3.24 15.12,-7.65 20.77,-12.88 8.49,-7.89 14.03,-17.6 17.35,-27.72 3.33,-10.13 4.54,-20.77 4.54,-31.11 -0.03,-17.51 -3.45,-34.29 -6.84,-46.83 -1.87,-6.87 -3.71,-12.4 -5.01,-16.09 6.01,-7.86 11.97,-17.23 18.17,-27.45 1.69,-2.81 3.41,-5.71 5.17,-8.61 7.61,9.52 16.47,17.65 25.78,24.61 19.44,14.45 40.82,23.82 57.41,29.71 5.99,2.12 11.37,3.78 15.81,5.05 -2.17,3.48 -4.44,7.29 -6.62,11.43 -7.13,13.6 -13.63,30.44 -13.69,48.37 0,1.75 0.09,3.54 0.21,5.35l0 0.06c0.54,7.95 2.12,17.11 4.44,27.27 6.26,27.15 17.87,61.43 29.84,93.51l19.2 0c-0.48,-1.3 -1,-2.63 -1.48,-3.96 -8.29,-22.1 -16.42,-45.29 -22.67,-66.21 -6.26,-20.86 -10.59,-39.57 -11.4,-51.82 -0.09,-1.51 -0.15,-2.93 -0.15,-4.2 -0.03,-13.39 5.23,-27.93 11.64,-39.99 4.26,-8.17 8.97,-15.18 12.57,-20.08l0.03 -0.03c0.73,-1 1.36,-1.84 2,-2.66 0.87,0.3 1.84,0.63 2.9,0.97 0.06,0 0.09,0.03 0.12,0.06 8.43,2.6 21.98,5.62 39.21,5.62 7.98,0 15.24,-1.81 21.47,-4.44 9.94,-4.27 17.41,-10.55 22.52,-15.78 5.08,-5.23 7.83,-9.41 8.07,-9.77 2.15,-3.36 1.85,-7.74 -0.76,-10.76l-21.79 -25.21 -20.92 -24.22 -5.08 -5.87c-0.36,-5.14 -1.69,-15.23 -6.41,-28.05l30.29 -13.76c2.54,-1.15 4.42,-3.47 5.05,-6.19 0.61,-2.72 -0.09,-5.63 -1.87,-7.77 -0.37,-0.43 -10.16,-12.1 -27.88,-24.31 -17.08,-11.79 -41.72,-24.12 -72.31,-26.72 -6.35,-5.84 -14.45,-10.95 -24.7,-14.27 -4.6,-1.52 -9.55,0.87 -11.22,5.41 -0.09,0.33 -2.02,5.47 -3.66,13.3 -19.34,6.86 -35.82,20.07 -49.79,35.88 -22.82,25.97 -39.33,59.14 -50.39,85.92 -7.83,19.05 -12.85,34.8 -15.12,42.48 -4.57,1.24 -9.19,2.42 -13.91,3.45l0 -268.43 368.29 0 0 481.41 17.99 0 0 -481.41 360.21 0 0 271.72c-14.06,2.09 -29.02,3.24 -45.41,3.24 -11.28,0 -23.22,-0.55 -35.92,-1.67l-0.03 0c-2.69,-0.24 -5.38,-0.48 -8.1,-0.75l-0.3 -0.03c-0.18,-0.03 -0.51,-0.03 -0.97,-0.03 -1.87,0 -6.04,0.21 -10.79,2.9 -2.36,1.33 -4.81,3.39 -6.74,6.17 -1.09,1.51 -2,3.23 -2.72,5.11 -2.91,1.17 -6.29,2.63 -10.01,4.44 -3.87,-4.5 -9.95,-10.73 -18.5,-17.08 -15.54,-11.55 -39.36,-23.13 -71.14,-23.13 -18.65,0 -35.22,6.23 -49.09,15.24 -20.86,13.51 -36.22,33.07 -46.59,49.19 -10.37,16.14 -15.72,28.99 -15.84,29.32 -1.76,4.17 -0.12,8.98 3.81,11.25l54.66 31.35c2.32,1.33 5.07,1.54 7.58,0.63 2.51,-0.94 4.45,-2.9 5.35,-5.41 0.13,-0.33 1.82,-4.84 4.9,-11.34 3.12,-6.5 7.68,-14.96 13.52,-23.24 5.8,-8.26 12.94,-16.3 20.86,-22.01 7.98,-5.75 16.53,-9.19 26.09,-9.22 9.13,0 17.68,2.99 23.91,6.13 0.79,0.4 1.54,0.79 2.27,1.18 -6.68,9.31 -13,20.89 -18.54,35.34 -9.94,25.88 -28.2,76.67 -44.41,122.11l19.11 0c15.63,-43.81 32.71,-91.24 42.08,-115.7 6.62,-17.23 14.18,-29.32 21.68,-38.09 0.03,-0.03 0.06,-0.06 0.09,-0.09l0 -0.03 0.03 0c6.95,-8.1 13.91,-13.33 20.35,-17.17 2.32,-1.39 4.56,-2.51 6.77,-3.57 1.27,16.72 4.9,31.29 10.37,43.75 10.31,23.58 27.15,39.54 45.26,49.27 18.1,9.8 37.42,13.61 53.9,13.61 15.6,0 28.69,-2.33 39.6,-6.65 8.19,-3.24 15.12,-7.65 20.77,-12.88 8.5,-7.89 14.03,-17.6 17.35,-27.72 3.33,-10.13 4.54,-20.77 4.54,-31.11 -0.03,-17.51 -3.45,-34.29 -6.83,-46.83 -1.88,-6.87 -3.72,-12.4 -5.02,-16.09 6.01,-7.86 11.97,-17.23 18.17,-27.45 1.69,-2.81 3.41,-5.71 5.17,-8.61 7.62,9.52 16.47,17.65 25.78,24.61 19.44,14.45 40.82,23.82 57.38,29.71 6.02,2.12 11.4,3.78 15.85,5.05 -2.18,3.48 -4.45,7.29 -6.62,11.43 -7.14,13.6 -13.64,30.44 -13.7,48.37 0,1.79 0.09,3.57 0.18,5.35l0.03 0.06c0.52,7.95 2.12,17.11 4.45,27.27 6.25,27.15 17.86,61.43 29.84,93.51l19.19 0c-0.48,-1.3 -0.99,-2.63 -1.48,-3.96 -8.28,-22.1 -16.41,-45.29 -22.67,-66.21 -6.26,-20.86 -10.61,-39.57 -11.4,-51.82 -0.09,-1.54 -0.15,-2.96 -0.15,-4.2 -0.03,-13.39 5.23,-27.93 11.64,-39.99 4.26,-8.17 8.98,-15.18 12.57,-20.08l0 -0.03c0.73,-1 1.39,-1.84 2,-2.66 0.91,0.3 1.87,0.63 2.93,0.97 0.06,0 0.09,0.03 0.12,0.06 8.44,2.6 21.95,5.62 39.18,5.62 8.01,0 15.27,-1.81 21.5,-4.44 9.94,-4.27 17.41,-10.55 22.52,-15.78 5.08,-5.23 7.83,-9.41 8.04,-9.77 2.18,-3.36 1.88,-7.74 -0.72,-10.76z"/>
   <path class="fil4" d="M2084.13 395.7l-113.21 123.26 -982.93 0 -113.22 -123.26c5.17,-0.03 1204.22,-0.03 1209.36,0z"/>
   <path class="fil3" d="M1925.9 377.35l-247.87 0c-6.32,-4.05 -23.79,-15.84 -45.74,-35.91l176.52 0c29.6,11.88 58.65,21.19 86.28,28.48 10.49,2.75 20.77,5.23 30.81,7.43z"/>
   <path class="fil8" d="M1768.03 323.45l-154.27 0 -0.28 -0.27c-10.15,-10.46 -20.79,-22.49 -31.38,-36.04l120.27 0c21.73,13.79 43.74,25.79 65.66,36.31z"/>
   <path class="fil1" d="M1675.61 269.15l-106.84 0c-7.89,-11.18 -15.63,-23.34 -23.01,-36.33l83.75 0c15.05,13.12 30.44,25.24 46.1,36.33z"/>
   <path class="fil2" d="M1609.64 214.83l-73.55 0c-5.8,-11.46 -11.28,-23.56 -16.32,-36.31l55.11 0c11.27,12.85 22.88,24.94 34.76,36.31z"/>
   <path class="fil4" d="M1559.7 160.53l-46.53 0c-3.99,-11.58 -7.58,-23.7 -10.76,-36.28l30.14 0c8.77,12.67 17.81,24.76 27.15,36.28z"/>
   <path class="fil8" d="M1520.55 106.26l-22.25 0c-3.51,-16.77 -6.23,-34.31 -7.89,-52.78 9.46,18.56 19.53,36.16 30.14,52.78z"/>
   <path class="fil8" d="M1468.43 53.6c-1.66,18.38 -4.32,35.95 -7.83,52.67l-22.28 0c10.61,-16.6 20.65,-34.17 30.11,-52.67z"/>
   <path class="fil4" d="M1456.49 124.25c-3.14,12.61 -6.77,24.7 -10.76,36.28l-46.53 0c9.34,-11.52 18.38,-23.61 27.15,-36.28l30.14 0z"/>
   <path class="fil2" d="M1439.08 178.52c-5.05,12.76 -10.55,24.85 -16.39,36.31l-73.43 0c11.88,-11.37 23.49,-23.46 34.73,-36.31l55.09 0z"/>
   <path class="fil1" d="M1413.11 232.82c-7.38,13.02 -15.12,25.12 -23.04,36.33l-106.69 0c15.66,-11.09 31.05,-23.19 46.14,-36.33l83.59 0z"/>
   <path class="fil8" d="M1376.8 287.14c-10.7,13.7 -21.44,25.79 -31.68,36.31l-154.12 0c21.91,-10.52 43.89,-22.55 65.6,-36.31l120.2 0z"/>
   <path class="fil3" d="M1326.61 341.44c-21.94,20.07 -39.42,31.89 -45.74,35.91l-247.87 0c36.49,-8.04 76.25,-19.53 117.09,-35.91l176.52 0z"/>
   <path class="fil7" d="M2113.22 687.17l-19.75 8.98c-1.78,-2.12 -4.05,-4.57 -6.92,-7.08 -6.71,-5.95 -16.75,-12.27 -30.17,-15.44 -0.69,-4.63 -2.15,-10.95 -5.11,-17.93 -0.27,-0.67 -0.63,-1.36 -0.97,-2.03 19.17,4.32 35.19,12.76 47.23,21.04 6.5,4.48 11.73,8.83 15.69,12.46z"/>
   <path class="fil7" d="M1996.28 679.13c-9.49,4.56 -18.02,11.36 -25.85,19.32 -15.3,15.65 -28.2,35.97 -39.87,55.2 -5.84,9.61 -11.31,18.95 -16.51,27.27 -5.2,8.28 -10.1,15.51 -14.57,20.8 -0.06,0.06 -0.09,0.15 -0.12,0.21 4.26,-13.55 13.3,-39.6 27.08,-66.33 9.38,-18.23 20.95,-36.73 34.44,-51.64 9.97,-11.06 20.92,-20.07 32.65,-25.9 -0.03,0.3 -0.03,0.6 -0.03,0.93 0,6.41 0.72,13.34 2.78,20.14z"/>
   <path class="fil8" d="M1712.04 837.57c-3.57,2.66 -7.19,5.75 -10.82,9.37 -1.73,-1.02 -3.72,-2.17 -5.99,-3.29 -7.89,-3.96 -18.95,-8.01 -31.95,-8.01 -14.3,-0.03 -26.85,5.38 -37.1,12.94 -15.42,11.36 -26.39,27.45 -33.86,40.69 -3.02,5.38 -5.41,10.28 -7.22,14.24l-38.64 -22.16c4.08,-8.16 11.79,-22.13 22.83,-35.8 8.28,-10.34 18.41,-20.4 29.95,-27.72 11.58,-7.35 24.4,-12 38.79,-12 27.36,0.03 47.16,9.79 60.44,19.59 5.89,4.35 10.37,8.68 13.57,12.15z"/>
   <path class="fil7" d="M1231.81 679.13c-9.5,4.56 -18.02,11.36 -25.82,19.32 -15.33,15.65 -28.24,35.97 -39.91,55.2 -5.83,9.61 -11.3,18.95 -16.5,27.27 -5.2,8.28 -10.1,15.51 -14.55,20.8 -0.05,0.06 -0.09,0.15 -0.15,0.21 4.27,-13.55 13.31,-39.6 27.09,-66.33 9.4,-18.23 20.95,-36.73 34.44,-51.64 9.97,-11.06 20.92,-20.07 32.65,-25.9 -0.03,0.3 -0.03,0.6 -0.03,0.93 0,6.41 0.72,13.34 2.78,20.14z"/>
   <path class="fil7" d="M1348.77 687.17l-19.77 8.98c-1.78,-2.12 -4.05,-4.57 -6.92,-7.08 -6.71,-5.95 -16.72,-12.27 -30.17,-15.44 -0.7,-4.63 -2.15,-10.95 -5.11,-17.93 -0.27,-0.67 -0.64,-1.36 -0.97,-2.03 19.17,4.32 35.19,12.76 47.22,21.04 6.5,4.48 11.73,8.83 15.72,12.46z"/>
   <path class="fil3" d="M1373.41 801.45c-0.63,0.69 -1.33,1.45 -2.08,2.23 -3.96,3.96 -9.62,8.53 -16.33,11.37 -4.35,1.84 -9.16,3.02 -14.42,3.02 -11.06,0 -20.31,-1.42 -27.24,-3.05 0.67,-8.74 2.48,-16.21 5.02,-22.58 4.78,-11.92 11.91,-20.11 17.84,-25.37 1.57,-1.42 3.08,-2.6 4.41,-3.6l15.87 18.38 16.93 19.6z"/>
   <path class="fil2" d="M1328.82 749.87c-3.69,2.81 -8.01,6.62 -12.42,11.7 -5.35,6.17 -10.71,14.18 -14.73,24.22 -2.81,6.98 -4.86,15.02 -5.89,23.97 -2.63,-0.09 -5.26,0.87 -7.08,2.96 -0.09,0.09 -1.33,1.51 -3.26,3.99 -7.56,-1.9 -22.25,-6.1 -38.61,-13.45 -11.64,-5.2 -24.09,-11.97 -35.43,-20.5 -9.88,-7.43 -18.89,-16.17 -25.94,-26.33 6.47,-10.46 13.18,-20.83 20.26,-30.08 6.38,-8.38 13.06,-15.81 19.83,-21.62 6.8,-5.8 13.66,-9.88 20.53,-11.94 2.54,-0.78 4.65,-2.66 5.68,-5.11 1.03,-2.48 0.91,-5.29 -0.3,-7.65 -3.21,-6.1 -4.48,-13.6 -4.45,-21.04 0,-7.1 1.12,-14 2.33,-19.23 4.36,2.33 7.95,5.02 10.92,7.96 7.01,7.01 10.67,15.47 12.51,22.28 0.94,3.38 1.42,6.35 1.63,8.37 0.12,1.03 0.19,1.81 0.22,2.3l0.03 0.54 0 0.06c0.03,2.24 0.84,4.3 2.23,5.87 1.39,1.6 3.33,2.69 5.54,2.96 13.06,1.78 21.94,7.35 27.78,12.46 2.9,2.57 5.02,5.01 6.32,6.74 0.66,0.88 1.15,1.57 1.42,1.99l0.15 0.24c8.04,18.02 8.16,31.36 8.16,31.9l0 0.12c0,2.15 0.79,4.26 2.21,5.87l0.36 0.45z"/>
   <path class="fil8" d="M947.57 837.57c-3.57,2.66 -7.2,5.75 -10.82,9.37 -1.73,-1.02 -3.72,-2.17 -5.99,-3.29 -7.89,-3.96 -18.96,-8.01 -31.96,-8.01 -14.29,-0.03 -26.84,5.38 -37.09,12.94 -15.42,11.36 -26.39,27.45 -33.86,40.69 -3.02,5.38 -5.41,10.28 -7.2,14.24l-38.66 -22.16c4.08,-8.16 11.79,-22.13 22.82,-35.8 8.29,-10.34 18.41,-20.4 29.96,-27.72 11.58,-7.35 24.4,-12 38.82,-12 27.33,0.03 47.13,9.79 60.4,19.59 5.9,4.35 10.37,8.68 13.58,12.15z"/>
   <path class="fil1" d="M1145.95 871.98c0,7.95 -0.85,15.78 -2.84,22.88 -1.48,5.32 -3.6,10.25 -6.47,14.66 -4.33,6.56 -10.25,12.07 -18.96,16.15 -8.74,4.08 -20.44,6.68 -36,6.68 -9.1,0 -19.56,-1.45 -29.96,-4.84 -15.6,-5.11 -30.99,-14.48 -42.54,-29.81 -11.43,-15.17 -19.38,-36.4 -19.56,-66.51 0.3,-1.18 0.7,-1.9 1,-2.32 0.54,-0.76 0.97,-0.97 1.57,-1.21l0.88 -0.21 0.3 -0.04c2.69,0.28 5.29,0.52 7.89,0.76 13.21,1.15 25.67,1.72 37.52,1.72 20.28,0 38.78,-1.66 56.08,-4.74 0.06,0 0.15,-0.03 0.21,-0.03 10.67,-1.91 20.89,-4.33 30.78,-7.26 2.99,-0.88 5.35,-3.26 6.16,-6.29l0.09 -0.36c0.12,-0.48 0.43,-1.54 0.88,-3.05 0.06,0.93 0.24,1.84 0.6,2.75l0 0.03c0.31,0.69 3.42,8.58 6.44,20.01 3.06,11.4 5.93,26.39 5.93,41.03z"/>
   <path class="fil3" d="M2137.89 801.45c-0.64,0.69 -1.33,1.45 -2.12,2.23 -3.93,3.96 -9.58,8.53 -16.3,11.37 -4.35,1.84 -9.16,3.02 -14.45,3.02 -11.06,0 -20.28,-1.42 -27.21,-3.05 0.67,-8.74 2.48,-16.21 5.02,-22.58 4.78,-11.92 11.88,-20.11 17.84,-25.37 1.57,-1.42 3.08,-2.6 4.41,-3.6l15.88 18.38 16.93 19.6z"/>
   <path class="fil2" d="M2093.29 749.87c-3.69,2.81 -8.01,6.62 -12.42,11.7 -5.35,6.17 -10.73,14.18 -14.72,24.22 -2.82,6.98 -4.87,15.02 -5.9,23.97 -2.63,-0.09 -5.26,0.87 -7.07,2.96 -0.09,0.09 -1.33,1.51 -3.27,3.99 -7.56,-1.9 -22.25,-6.1 -38.61,-13.45 -11.63,-5.2 -24.09,-11.97 -35.43,-20.5 -9.88,-7.43 -18.89,-16.17 -25.94,-26.33 6.47,-10.46 13.18,-20.83 20.26,-30.08 6.38,-8.38 13.03,-15.81 19.83,-21.62 6.77,-5.8 13.67,-9.88 20.53,-11.94 2.54,-0.78 4.62,-2.66 5.68,-5.11 1.03,-2.48 0.91,-5.29 -0.3,-7.65 -3.2,-6.1 -4.47,-13.6 -4.44,-21.04 0,-7.1 1.11,-14 2.32,-19.23 4.33,2.33 7.95,5.02 10.92,7.96 7.01,7.01 10.67,15.47 12.51,22.28 0.94,3.38 1.42,6.35 1.64,8.37 0.12,1.03 0.18,1.81 0.21,2.3l0.03 0.54 0 0.06c0,2.24 0.84,4.3 2.24,5.87 1.39,1.6 3.32,2.69 5.53,2.96 13.03,1.78 21.95,7.35 27.78,12.46 2.9,2.57 5.02,5.01 6.32,6.74 0.66,0.88 1.15,1.57 1.42,1.99l0.15 0.21c8.04,18.02 8.16,31.39 8.16,31.93l0 0.12c0,2.15 0.79,4.26 2.21,5.87l0.36 0.45z"/>
   <path class="fil1" d="M1910.42 871.98c0,7.95 -0.85,15.78 -2.84,22.88 -1.48,5.32 -3.6,10.25 -6.47,14.66 -4.32,6.56 -10.25,12.07 -18.99,16.15 -8.7,4.08 -20.4,6.68 -35.97,6.68 -9.1,0 -19.56,-1.45 -29.96,-4.84 -15.6,-5.11 -30.99,-14.48 -42.57,-29.81 -11.4,-15.17 -19.35,-36.4 -19.53,-66.51 0.3,-1.18 0.7,-1.9 0.97,-2.32 0.57,-0.76 1,-0.97 1.6,-1.21l0.88 -0.21 0.27 -0.04c2.69,0.28 5.32,0.52 7.92,0.76 13.21,1.15 25.67,1.72 37.52,1.72 20.29,0 38.79,-1.66 56.08,-4.74 0.06,0 0.12,-0.03 0.21,-0.03 10.67,-1.91 20.89,-4.33 30.78,-7.26 2.99,-0.88 5.35,-3.26 6.16,-6.29l0.09 -0.36c0.13,-0.48 0.43,-1.54 0.88,-3.05 0.06,0.93 0.24,1.84 0.61,2.75l0 0.03c0.3,0.69 3.41,8.58 6.44,20.01 3.05,11.4 5.92,26.39 5.92,41.03z"/>
   <path class="fil2" d="M2032.29 843.8c0,0 0,0 0,-0.01 0,0 0.01,0 0.01,0l-0.01 0.01z"/>
   <path class="fil2" d="M1267.82 843.8c0,0 0,0 0,-0.01 0,0 0.01,0 0.01,0l-0.01 0.01z"/>
   <path class="fil2" d="M1436.22 227.97c0,0 0,0 0,0 -0.01,0.01 -0.01,0.01 -0.01,0.02l0.01 -0.02z"/>
   <path class="fil2" d="M1355.33 338.75c-0.01,0.01 -0.01,0.01 -0.01,0.01 0,0 0,0 0,0l0.01 -0.01z"/>
   <g>
    <path class="fil10" d="M1344.19 2170.22c28.6,-1.6 22.08,2.11 26.66,-27.65 8.19,-53.15 11.48,-87.56 12.02,-143.16l-20.45 0.52c0.04,25.23 -3.61,123.48 -11.3,138.83l-21.54 -83.1 -17.81 -0.02c-6.84,24.99 -24.41,57.6 -34.19,82.44 -2.44,-24.18 -1.78,-54.91 -2.31,-79.86 -1.4,-65.95 7.5,-56.41 -21.65,-58.21 -1.14,57.72 2.86,113.25 8.03,169.25l20.65 0.38 38.1 -79.33 23.79 79.91z"/>
    <path class="fil10" d="M364.82 2038.17c-0.96,29.51 4.29,110.83 -27.94,109.33 -34.52,-1.6 -12.39,-90.08 -19.47,-110.32 -23.58,-2.16 -15.71,-4.93 -20.61,41.78 -9.41,89.74 51.89,118.67 74.55,57.41l2.19 3.6c0.28,0.52 0.71,1.23 1,1.8 0.23,0.43 2,4.32 2.53,5.41 18.62,39.14 85.54,32.96 73.6,-109.03l-17.42 0c-1.45,31.51 3.64,108.16 -25.82,111.1 -33.74,3.37 -21.48,-82.92 -25.96,-110.62l-16.65 -0.46z"/>
    <path class="fil10" d="M2387.72 2106.73c-2.74,28.86 2.26,32.91 -23.63,43.84 -15.45,6.52 -45.05,5.92 -55.03,-5.67 -15.42,-17.92 2.03,-36.7 17.87,-41.5 18.61,-5.65 43.22,-1.32 60.79,3.33zm-88.23 -32.11c11.62,-9.44 22.06,-26.11 52.41,-20.68 18.98,3.41 32.74,17.34 33.58,37.07 -44.84,-9.62 -109.79,-10.05 -100.97,47.95 6.13,40.36 83.61,41.42 103.85,13.08 6.69,8.3 10.11,18.81 27.05,16.94 14.49,-1.59 18.3,-10.85 20.38,-24.17l-8.5 -8.46 -7.06 9.92c-6.61,5.97 -2.21,3.83 -11.72,3.02 -13.1,-38.13 11.78,-77.99 -30.18,-104.17 -32.29,-20.16 -78.83,-4.67 -93.87,18.16 4.07,6.01 6.96,7.49 15.03,11.34z"/>
    <path class="fil10" d="M2737.12 2081.05c-0.94,33.4 4.91,47.87 -18.49,61.96 -20.66,12.44 -48.81,6.99 -58.56,-12.31 -20.37,-40.36 21.79,-90.98 77.05,-49.65zm17.68 88.05c2.56,-27.86 0.2,-61.87 0.91,-90.73 0.68,-27.81 4.19,-58.58 4.76,-86.1l-18.08 0 -5.52 70.3c-41.79,-31.46 -101.43,-10.19 -100.75,48.82 0.31,26.84 13.78,47.86 34.87,54.01 34.56,10.07 50.75,-5.51 65.87,-18l1.75 21.3 16.19 0.4z"/>
    <path class="fil10" d="M1858.77 2083.54c0.06,33.62 5.22,49.18 -22.17,61.4 -60.67,27.09 -77.44,-59.24 -36.91,-74.95 18.18,-7.04 52.39,-1.78 59.08,13.55zm15.26 85.58c1.35,-2.28 1.58,-2.34 2.69,-7.04 1.16,-4.9 0.29,-0.25 0.79,-4.98 0.17,-1.58 0.02,-8.24 0,-10.23 -0.11,-7.8 -0.01,-15.12 0.15,-22.9l4.57 -131.68 -18.01 0.05 -4.3 68.77c-13.67,-4.31 -16.99,-9.36 -35.1,-11.7 -38.15,-4.94 -66.48,18.91 -65.88,62.03 0.9,64.76 74.45,71.06 98.71,36.62l1.68 13.78c0.15,0.74 0.45,1.66 0.58,2.26l14.12 5.02z"/>
    <path class="fil10" d="M1941.22 2091.49c7.98,-54.71 72.28,-55.72 77.04,-3.03 -37.09,0.25 -32.94,-0.77 -77.04,3.03zm0.02 17.38c0.67,-0.33 1.56,-0.6 2.1,-0.77 24.58,-7.88 67.41,-4.13 92.96,-4.24 0.13,-38.52 -9.81,-67.28 -48.29,-68.62 -34.72,-1.21 -60.65,20.39 -65.54,48.65 -14.66,84.59 71.25,108.14 117.9,55.14 -3.32,-5.9 -7.25,-10.12 -11.39,-15.05 -16.29,9.5 -18.18,26.46 -51.11,23.3 -23.74,-2.28 -32.82,-14.69 -36.63,-38.41z"/>
    <path class="fil10" d="M1481.5 2154.38c-51.53,0.08 -54.09,-101.06 0.12,-103.77 28.6,-1.43 42.35,22.38 43.1,50.59 0.92,35.08 -12.04,53.13 -43.22,53.18zm62.3 -35.38c6.92,-37.36 -13.46,-76.65 -42.97,-82.68 -95.33,-19.45 -103.73,121.22 -33.52,134.88 43.61,8.48 68.84,-10.94 76.49,-52.2z"/>
    <path class="fil10" d="M1606.85 2167.12c4.32,-17.82 2.97,-54.51 4.9,-74.52 1.79,-18.57 2.93,-17.39 15.48,-25.44 8.16,-5.24 16.05,-9.57 26.86,-11.12 55.74,-8 36.32,59.45 32.51,113.73l22.87 -0.43 2.68 -68.07c0,-32.14 -1.94,-57.62 -30.31,-63.59 -30.97,-6.51 -51.2,8.48 -68.48,20.38l-0.43 -20.18 -21.86 0.73c-1.79,21.86 -0.43,45.65 -0.79,67.8 -0.35,21.24 -3.92,43.38 -5.05,63.3l21.62 -2.59z"/>
    <path class="fil10" d="M2489.52 2078.43c14.7,-9.35 25.12,-22.79 50.58,-23.02 25.22,-0.22 30.26,15.89 30.27,40.8 0.45,28.29 -2.6,44.7 -5.61,73.56l21.62 -0.07c2.91,-36.63 20.6,-124.49 -30.41,-132.66 -32.21,-5.16 -46.35,11.38 -65.85,20.74l-0.45 -19.93 -19.51 0.48 -6.21 131.45 20.4 0.04c3.03,-37.49 5.14,-55.05 5.17,-91.39z"/>
    <path class="fil10" d="M1013.06 2077.56c11.12,-6.57 20.1,-16.6 36.64,-20.52 20.46,-4.87 33.54,-1.62 39.48,13.71 8.39,21.66 2.31,74.31 -2.29,98.51l22.33 0.4c1.11,-34.32 12.22,-88.47 -4.58,-116.91 -7.71,-13.05 -24.54,-19.35 -46.78,-15.57 -21.65,3.69 -30,12.33 -44.75,20.91l-0.1 -20.51 -21.24 1.94c-2.35,37.38 1.87,97.33 -6.38,130.12l21.96 -0.09 5.71 -91.99z"/>
    <path class="fil10" d="M279.74 2018.4l-0.09 -14.47c-15.8,-4.01 -99.8,-2.55 -120.24,-0.77l2.05 19.75 49.1 -2.56 2.13 149.62 22.88 -0.39 -5.01 -149.19c14.1,-0.17 36.64,2.89 49.18,-1.99z"/>
    <path class="fil10" d="M764.8 2146.42c-9.37,3.29 -3.28,3.12 -9.89,6.09 -27.32,12.28 -22.14,-49.19 -21.29,-62.86 1.88,-30.13 3.75,-69.42 3.27,-100.09l-18.55 1.94c-4.74,30.57 -4.28,89.74 -4.28,122.46 0,90.55 51.02,53.93 56.34,45.56 -2.03,-6.28 -3.24,-7.57 -5.6,-13.1z"/>
    <path class="fil10" d="M2247.73 2145.45c-32.67,32.71 -29.23,-28.96 -29.22,-54.31 0.02,-34.55 2.73,-66.84 3.01,-101.28l-18.51 -0.07c-1.59,40.45 -5.31,84.02 -4.8,124.23 1.13,89.56 51.92,54.55 58.05,45.31l-8.53 -13.88z"/>
    <path class="fil10" d="M603.91 2036.43c-22.85,3.43 -19.57,-0.01 -14.72,22.52 8.51,39.57 7.11,70.72 11.1,110.32l20.08 -0.32c4.2,-27.27 -6.73,-61.62 -7.29,-85.75 -0.29,-12.85 11.46,-19.32 21.34,-23.73 15.86,-7.09 23.99,-3.32 38.92,-0.69l3.6 -20.9c-33.78,-6.23 -50.35,-0.09 -68.32,19.5l-4.71 -20.95z"/>
    <path class="fil10" d="M2087.57 2036.39c-28.7,4.67 -15.75,-3.78 -8.96,57.65 2.75,24.95 2.54,50.05 5.35,75.2l20.22 -0.29c9.39,-58.8 -31.06,-89.51 14.2,-109.57 15.82,-7.01 24.3,-3.22 38.9,-0.47l3.39 -21c-35.66,-6.36 -49.55,2.88 -68.2,18.88l-4.9 -20.4z"/>
    <path class="fil10" d="M921.52 2169.37c2.69,-39.86 2.89,-75.99 2.91,-116.66l-18.51 2.07 -4.95 114.77 20.55 -0.18z"/>
    <path class="fil10" d="M529.02 2169.31c3.26,-39.23 2.9,-75.97 2.87,-116.21l-17.92 -0.07 -4.73 116.51 19.78 -0.23z"/>
    <path class="fil10" d="M901.73 2025.18c4.23,3.27 10.82,9.79 20.26,5.61 7.01,-3.1 10.8,-11.49 6.72,-22.26 -4.69,-12.4 -31.49,-17.36 -26.98,16.65z"/>
    <path class="fil10" d="M537.71 2017.48c0.28,-3.02 -0.08,-6.24 -1.17,-9.23 -2.34,-6.36 -6.49,-8.21 -12.28,-8.42 -20.1,-0.72 -22.09,30.13 -1.92,32.08 9.09,0.88 9.99,-2.5 12.5,-6.11 0.35,-0.62 0.79,-1.41 0.96,-1.91l1.91 -6.41z"/>
   </g>
  </g>
 </g>
</svg>
